<?xml version="1.0" encoding="UTF-8"?><svg id="Camada_2" xmlns="http://www.w3.org/2000/svg" viewBox="0 0 32.96 37.08"><defs><style>.cls-1{fill:#c7c8c9;}</style></defs><g id="Camada_1-2"><g id="c133de6af664cd4f011a55de6b001b19"><path class="cls-1" d="M32.96,0l-3.09,33.48-13.39,3.61-13.39-3.61L0,0h32.96ZM26.73,6.81H6.02l.5,4.04h10.51l-.56.23-9.58,3.99.32,3.95,9.27.03,4.97.02-.32,5.27-4.65,1.31h0s-.04,0-.04,0l-4.49-1.13-.27-3.27h-4.19l.55,6.31,8.45,2.5h0s.02,0,.02,0l8.4-2.45,1.09-12.54h-9.53.02s9.86-4.22,9.86-4.22l.41-4.04Z"/></g></g></svg>