<?xml version="1.0" encoding="UTF-8"?><svg id="Camada_2" xmlns="http://www.w3.org/2000/svg" viewBox="0 0 32.63 32.63"><defs><style>.cls-1{fill:#c7c8c9;}</style></defs><g id="Camada_1-2"><path class="cls-1" d="M16.31,0C7.3,0,0,7.3,0,16.31s7.3,16.31,16.31,16.31,16.31-7.3,16.31-16.31S25.32,0,16.31,0ZM9.46,10.44c1.03,0,1.82.75,1.91,1.63.09.79-.23,1.49-1.12,1.91-.47.23-.65.23-.75.09-.05-.09,0-.19.09-.28.84-.7.84-1.26.75-2.05-.05-.51-.42-.84-.79-.84-1.63,0-3.96,3.64-3.64,6.29.14,1.03.75,2.24,2.05,2.24.42,0,.88-.14,1.31-.33.68-.36,1.09-.64,1.49-1.09-.1-1.2.96-2.78,2.52-2.78.7,0,1.26.28,1.31.79.09.7-.51.79-.7.79s-.51-.05-.51-.23c-.05-.19.42-.1.37-.51-.05-.28-.33-.37-.61-.37-.98,0-1.54,1.35-1.4,2.19.05.37.23.75.61.75.28,0,.7-.42.84-1.03.09-.42.47-.7.79-.7.14,0,.23.05.28.23v.19c-.05.19-.19.75-.14.89,0,.09.05.23.23.23.13,0,.59-.24,1.06-.62.16-.8.34-1.76.34-1.84.05-.33.19-.65.84-.65.14,0,.23.05.28.23v.19l-.18.84c.6-.79,1.49-1.35,2.05-1.35.23,0,.42.14.42.37,0,.14,0,.37-.09.61-.19.51-.42,1.31-.56,2,0,.19.05.37.28.37s.93-.28,1.49-1.03h0c0-.1,0-.19,0-.28,0-.56.05-1.03.14-1.35.09-.37.56-.7.84-.7.14,0,.28.09.28.23,0,.05,0,.14-.05.19-.19.61-.33,1.17-.33,1.73,0,.33.05.79.14,1.07,0,.05.05.09.1.09.09,0,.75-.6,1.21-1.4-.42-.28-.65-.75-.65-1.31,0-.98.61-1.49,1.17-1.49.47,0,.84.33.84.98,0,.42-.14.88-.37,1.31h.14c.3,0,.59-.11.79-.33.04-.07.11-.13.18-.16.46-.58,1.13-1.01,1.92-1.01.65,0,1.26.28,1.3.79.09.7-.51.84-.7.84h0c-.19,0-.51-.05-.51-.24s.42-.09.37-.51c-.05-.28-.33-.37-.61-.37-.93,0-1.54,1.21-1.4,2.19.05.37.23.79.6.79.28,0,.7-.42.89-1.03.09-.37.47-.7.79-.7.14,0,.23.05.28.23,0,.09,0,.28-.19.89-.23.42-.23.65-.19.84.05.37.23.65.42.79.05.05.09.14.09.14,0,.09-.05.19-.19.19-.05,0-.09,0-.14-.05-.7-.28-.98-.75-1.07-1.21-.28.33-.6.51-.98.51-.6,0-1.21-.56-1.31-1.26-.03-.3,0-.6.1-.88-.28.18-.57.28-.85.28h-.23c-.61.89-1.26,1.49-1.73,1.77-.16.08-.33.13-.51.14-.09,0-.23-.05-.28-.14-.13-.21-.21-.53-.26-.91-.65.72-1.56,1.09-1.98,1.09-.47,0-.75-.28-.79-.75v-.51c.14-1.03.51-1.63.51-1.82,0-.05-.04-.09-.09-.1-.33,0-1.4,1.12-1.59,1.87l-.14.6c-.09.42-.51.7-.79.7-.14,0-.23-.05-.28-.23v-.19l.06-.32c-.59.42-1.18.69-1.46.69-.42,0-.65-.23-.7-.56-.28.37-.6.56-1.03.56-.48,0-.95-.33-1.17-.81-.33.37-.71.75-1.16,1.04-.65.42-1.4.75-2.28.75-.79,0-1.49-.42-1.86-.79-.56-.51-.89-1.31-.93-2.05-.28-2.28,1.12-5.22,3.26-6.53.51-.28,1.03-.47,1.54-.47h0ZM22.75,14.92c-.14,0-.23.23-.23.47,0,.37.19.79.42,1.03.09-.25.14-.52.14-.79,0-.47-.19-.7-.33-.7h0Z"/></g></svg>