<?xml version="1.0" encoding="UTF-8"?><svg id="Camada_2" xmlns="http://www.w3.org/2000/svg" viewBox="0 0 23.81 35.72"><defs><style>.cls-1,.cls-2,.cls-3,.cls-4,.cls-5{fill:#c7c8c9;}.cls-2{opacity:.4;}.cls-2,.cls-3,.cls-4,.cls-5{isolation:isolate;}.cls-3{opacity:.2;}.cls-4{opacity:.6;}.cls-5{opacity:.8;}</style></defs><g id="Camada_1-2"><path class="cls-4" d="M11.91,0h-5.95C2.67,0,0,2.67,0,5.95s2.67,5.95,5.95,5.95h5.95V0Z"/><path class="cls-2" d="M11.91,11.91h-5.95c-3.29,0-5.95,2.67-5.95,5.95s2.67,5.95,5.95,5.95h5.95v-11.91Z"/><path class="cls-1" d="M23.81,17.86c0,3.29-2.67,5.95-5.95,5.95s-5.95-2.67-5.95-5.95,2.67-5.95,5.95-5.95,5.95,2.67,5.95,5.95Z"/><path class="cls-3" d="M5.95,23.82h5.95v5.95c0,3.29-2.67,5.95-5.95,5.95s-5.95-2.67-5.95-5.95,2.67-5.95,5.95-5.95Z"/><path class="cls-5" d="M11.91,0h5.95c3.29,0,5.95,2.67,5.95,5.95s-2.67,5.95-5.95,5.95h-5.95V0Z"/></g></svg>