<?xml version="1.0" encoding="UTF-8"?><svg id="Camada_2" xmlns="http://www.w3.org/2000/svg" viewBox="0 0 33.04 33.04"><defs><style>.cls-1{fill:#c7c8c9;}</style></defs><g id="Camada_1-2"><path class="cls-1" d="M30.93,0H2.11C.95,0,0,.94,0,2.11v28.82c0,1.16.95,2.11,2.11,2.11h28.82c1.16,0,2.11-.95,2.11-2.11V2.11c0-1.16-.95-2.11-2.11-2.11ZM15,18.62c0,.92-.09,1.7-.26,2.35s-.44,1.16-.79,1.57c-.35.4-.79.7-1.32.88-.53.19-1.14.28-1.84.28-.61,0-1.17-.1-1.67-.29s-.92-.47-1.27-.83c-.35-.36-.62-.8-.81-1.31-.19-.51-.28-1.09-.28-1.71v-.41h1.98c0,1.84.68,2.76,2.05,2.76.35,0,.66-.04.93-.12.27-.09.5-.24.69-.47.19-.23.33-.55.43-.97s.15-.95.15-1.62v-10.31h2v10.2h0ZM26.05,21.61c-.2.42-.5.78-.87,1.09-.38.31-.83.55-1.37.73-.54.17-1.14.26-1.81.26-2.96,0-4.52-1.17-4.68-3.5h1.94c0,1.32.91,1.98,2.71,1.98.4,0,.76-.04,1.06-.13.31-.09.56-.21.77-.36.21-.15.36-.34.47-.55.1-.21.16-.44.16-.68,0-.26-.04-.47-.12-.63-.08-.16-.24-.3-.47-.42-.23-.12-.55-.24-.96-.36-.41-.12-.95-.27-1.61-.44-.64-.16-1.2-.32-1.67-.48-.47-.16-.85-.35-1.15-.58-.3-.23-.52-.51-.67-.84-.14-.33-.22-.76-.22-1.26,0-.45.09-.86.28-1.25s.46-.71.81-1c.35-.28.78-.5,1.28-.66.5-.16,1.06-.24,1.67-.24,2.86,0,4.31,1.02,4.36,3.05h-1.91c-.07-1.02-.83-1.53-2.3-1.53-.33,0-.63.03-.9.1s-.52.16-.72.28-.36.27-.48.45c-.11.18-.17.39-.17.62,0,.21.03.39.08.52.05.14.18.27.38.38s.5.23.89.35c.39.11.93.25,1.62.42.66.16,1.23.32,1.72.49.48.17.89.38,1.21.62.32.24.56.54.72.89.15.35.23.79.23,1.31,0,.49-.1.94-.31,1.36Z"/></g></svg>