<?xml version="1.0" encoding="UTF-8"?><svg id="Camada_2" xmlns="http://www.w3.org/2000/svg" viewBox="0 0 32.63 32.62"><defs><style>.cls-1{fill:#c7c8c9;}</style></defs><g id="Camada_1-2"><path class="cls-1" d="M11.07,9.3c-.83,0-1.39.08-1.68.16v5.31c.35.08.77.1,1.36.1,2.16,0,3.49-1.09,3.49-2.93,0-1.65-1.15-2.64-3.18-2.64Z"/><path class="cls-1" d="M30.63,0H2C.89,0,0,.89,0,1.99v28.63c0,1.1.89,2,2,2h28.63c1.1,0,2-.89,2-2V1.99c0-1.1-.89-1.99-2-1.99ZM16.61,16.1c-1.38,1.31-3.44,1.89-5.84,1.89-.54,0-1.01-.03-1.39-.08v6.43h-4.03V6.61c1.25-.21,3.01-.37,5.5-.37s4.29.48,5.49,1.44c1.15.91,1.92,2.4,1.92,4.16s-.59,3.25-1.66,4.26ZM22.69,24.61c-1.71,0-3.23-.37-4.22-.91l.72-2.91c.75.45,2.3.98,3.5.98s1.73-.43,1.73-1.09-.4-.98-1.92-1.49c-2.69-.91-3.74-2.37-3.71-3.92,0-2.42,2.08-4.27,5.31-4.27,1.52,0,2.88.35,3.68.75l-.72,2.8c-.59-.32-1.71-.75-2.83-.75-.98,0-1.54.4-1.54,1.07,0,.61.5.93,2.1,1.49,2.48.85,3.52,2.11,3.55,4.02,0,2.43-1.92,4.22-5.65,4.22Z"/></g></svg>