<?xml version="1.0" encoding="UTF-8"?><svg id="Camada_2" xmlns="http://www.w3.org/2000/svg" viewBox="0 0 32.63 32.63"><defs><style>.cls-1{fill:#c7c8c9;}</style></defs><g id="Camada_1-2"><path class="cls-1" d="M13.24,11.16h-.05c-.25.99-.49,2.24-.76,3.2l-.99,3.52h3.67l-1.03-3.52c-.29-.99-.59-2.22-.84-3.2Z"/><path class="cls-1" d="M30.63,0H2C.89,0,0,.89,0,2v28.63c0,1.1.89,2,2,2h28.63c1.1,0,2-.9,2-2V2c0-1.1-.9-2-2-2ZM16.94,24.96l-1.28-4.26h-4.75l-1.18,4.26h-3.89l5.07-16.6h4.92l5.15,16.6h-4.04ZM26.68,24.96h-3.75v-12.04h3.75v12.04ZM24.78,11.44c-1.18,0-1.97-.84-1.95-1.87-.02-1.09.77-1.89,1.97-1.89s1.97.81,1.99,1.89c0,1.03-.79,1.87-2.02,1.87Z"/></g></svg>